<?xml version="1.0" standalone="no"?>
<!DOCTYPE svg PUBLIC "-//W3C//DTD SVG 20010904//EN"
 "http://www.w3.org/TR/2001/REC-SVG-20010904/DTD/svg10.dtd">
<svg version="1.0" xmlns="http://www.w3.org/2000/svg"
 width="300.000000pt" height="300.000000pt" viewBox="0 0 300.000000 300.000000"
 preserveAspectRatio="xMidYMid meet">
<metadata>
Created by potrace 1.10, written by Peter Selinger 2001-2011
</metadata>
<g transform="translate(0.000000,300.000000) scale(0.100000,-0.100000)"
fill="#000000" stroke="none">
<path d="M1410 2833 c-100 -9 -197 -30 -304 -64 -586 -190 -974 -779 -917
-1391 20 -211 78 -392 181 -565 193 -322 484 -539 847 -630 100 -26 124 -28
308 -28 213 0 265 9 286 47 9 16 5 30 -24 76 -18 32 -43 78 -55 104 -12 26
-30 52 -40 57 -11 6 -54 8 -103 4 -104 -7 -241 9 -355 42 -576 167 -892 789
-688 1355 56 156 121 261 237 379 203 207 449 310 745 312 182 1 332 -35 497
-119 74 -37 227 -154 279 -213 243 -277 328 -626 240 -978 -31 -122 -28 -143
24 -173 15 -9 51 -39 80 -67 29 -28 62 -51 73 -51 27 0 54 48 88 155 83 259
82 578 -4 830 -126 374 -404 671 -774 826 -174 73 -428 111 -621 92z m325 -47
c427 -67 799 -347 984 -741 154 -327 160 -735 17 -1076 l-12 -29 -33 40 c-17
22 -59 59 -92 82 -43 31 -58 47 -53 58 30 65 56 207 61 325 6 148 -9 259 -53
390 -115 346 -410 616 -773 708 -124 31 -378 31 -502 0 -364 -92 -657 -360
-773 -708 -86 -258 -70 -558 43 -799 136 -292 397 -509 711 -594 83 -22 116
-25 262 -26 105 -1 168 -5 168 -11 0 -20 58 -131 85 -163 15 -18 26 -35 24
-37 -2 -2 -51 -9 -109 -16 -400 -46 -795 88 -1075 365 -116 115 -181 203 -249
336 -101 197 -146 383 -146 600 0 365 146 705 409 953 193 180 434 301 686
342 108 17 310 18 420 1z"/>
<path d="M1402 1964 c-98 -26 -164 -64 -238 -138 -111 -111 -154 -214 -154
-371 0 -154 43 -260 149 -366 209 -209 527 -211 736 -4 163 162 201 404 97
615 -15 30 -57 85 -93 122 -129 133 -325 189 -497 142z m283 -45 c78 -25 124
-53 190 -118 238 -233 171 -641 -128 -785 -427 -206 -868 246 -650 666 34 65
109 149 169 189 111 73 279 93 419 48z"/>
<path d="M2165 1109 c-190 -31 -352 -171 -414 -356 -23 -70 -28 -214 -10 -292
29 -125 139 -266 257 -329 90 -48 155 -65 252 -64 288 1 519 234 520 522 0
145 -43 250 -149 362 -79 85 -188 143 -296 158 -79 11 -91 11 -160 -1z m185
-39 c73 -14 168 -63 231 -120 161 -144 206 -394 105 -585 -181 -344 -665 -356
-862 -20 -112 193 -71 457 95 605 119 107 273 150 431 120z"/>
<path d="M2183 910 c-98 -20 -187 -93 -231 -189 -21 -44 -26 -71 -27 -131 0
-66 5 -85 33 -142 58 -118 161 -183 292 -183 131 0 234 65 292 183 62 126 38
272 -62 372 -74 74 -195 111 -297 90z m195 -60 c109 -47 168 -153 160 -286 -7
-99 -49 -171 -133 -223 -50 -31 -68 -36 -131 -39 -103 -6 -164 17 -231 83 -40
41 -55 65 -69 110 -48 167 42 335 199 376 52 13 148 3 205 -21z"/>
</g>
</svg>
